<?xml version="1.0" encoding="utf-8"?>
<!-- Generator: Adobe Illustrator 15.0.0, SVG Export Plug-In . SVG Version: 6.00 Build 0)  -->
<!DOCTYPE svg PUBLIC "-//W3C//DTD SVG 1.1//EN" "http://www.w3.org/Graphics/SVG/1.1/DTD/svg11.dtd">
<svg version="1.1" id="Layer_1" xmlns="http://www.w3.org/2000/svg" xmlns:xlink="http://www.w3.org/1999/xlink" x="0px" y="0px"
	 width="156px" height="188px" viewBox="0 0 156 188" enable-background="new 0 0 156 188" xml:space="preserve">
<g>
	<circle fill="#FFFFFF" cx="141.25" cy="68.877" r="14.75"/>
	<path fill="#FFFFFF" d="M89.113,139.544l-7.074,17.875l-22.824,14.917c-2.168,1.232-3.634,3.559-3.634,6.23
		c0,3.958,3.208,7.167,7.167,7.167c1.535,0,2.955-0.487,4.121-1.31c3.761-2.371,22.351-14.084,25.495-15.88
		c3.5-2,4.125-5.125,4.125-5.125l4.875-16c0,0,0,0-5.75-2.625S89.113,139.544,89.113,139.544z"/>
	<path fill="#FFFFFF" d="M139.321,141.462c0,0-1.158-3.834-4.579-5.167s-18.087-7.75-18.087-7.75l15.416-25.584
		c0,0,3.834-9-0.333-13.417s-13.75-9.75-13.75-9.75h-7.521l15.799-26.801c3.354-5.686,1.443-13.081-4.242-16.432L72.633,7.447
		c-5.686-3.352-13.079-1.442-16.431,4.244L9.144,91.519c-3.351,5.685-1.442,13.08,4.244,16.432l49.39,29.113
		c5.686,3.352,13.081,1.441,16.432-4.242l22.934-38.903h8.096l-14.75,26.209c0,0-5.134,9.214-0.334,14.25
		c4.209,4.416,12.667,6.916,12.667,6.916l17.25,6.501l5.101,31.291l0.009-0.001c0.549,3.413,3.499,6.023,7.067,6.023
		c3.958,0,7.166-3.209,7.166-7.167c0-0.189-0.014-0.375-0.028-0.56l0.028-0.004L139.321,141.462z M17.958,100.198
		c-1.401-0.826-1.887-2.708-1.061-4.108l47.059-79.829c0.826-1.401,2.707-1.888,4.107-1.062l11.521,6.792l-50.104,84.998
		L17.958,100.198z M71.456,128.252c-0.826,1.4-2.707,1.887-4.107,1.061l-30.116-17.754l50.107-84.996l30.113,17.753
		c1.402,0.826,1.887,2.707,1.062,4.107l-18.493,31.372h-8.783L71.323,94.222c-0.442,0.252-0.853,0.553-1.23,0.891l-0.031,0.022
		l0.002,0.003c-1.445,1.312-2.358,3.198-2.358,5.304c0,3.958,3.208,7.167,7.167,7.167c1.548,0,2.978-0.496,4.149-1.331l0.002,0.003
		l0.071-0.058c0.182-0.133,0.356-0.273,0.524-0.423l9.66-7.784L71.456,128.252z"/>
</g>
<path fill="#F0C42E" d="M49.219,5.943L2.161,85.772c-3.351,5.685-1.442,13.08,4.244,16.432l49.39,29.113
	c5.686,3.352,13.081,1.441,16.432-4.242l47.057-79.829c3.354-5.686,1.443-13.081-4.242-16.432L65.65,1.7
	C59.965-1.652,52.571,0.258,49.219,5.943z M9.914,90.343l47.059-79.829c0.826-1.401,2.707-1.888,4.107-1.062l11.521,6.792
	l-50.105,84.998l-11.522-6.791C9.574,93.625,9.088,91.743,9.914,90.343z M111.531,42.676l-47.059,79.829
	c-0.826,1.4-2.707,1.887-4.107,1.061l-30.116-17.754l50.106-84.996l30.113,17.753C111.871,39.394,112.355,41.275,111.531,42.676z"/>
<g>
	<circle fill="#3A3A3A" cx="135.25" cy="63.083" r="14.75"/>
	<path fill="#3A3A3A" d="M81.875,133.75l-7.074,17.875l-22.825,14.917c-2.168,1.232-3.634,3.559-3.634,6.23
		c0,3.958,3.208,7.167,7.167,7.167c1.535,0,2.955-0.487,4.121-1.31c3.761-2.371,22.351-14.084,25.495-15.88
		c3.5-2,4.125-5.125,4.125-5.125l4.875-16c0,0,0,0-5.75-2.625S81.875,133.75,81.875,133.75z"/>
	<path fill="#3A3A3A" d="M132.083,135.668c0,0-1.158-3.834-4.579-5.167s-18.087-7.75-18.087-7.75l15.416-25.584
		c0,0,3.834-9-0.333-13.417S110.75,74,110.75,74H84L64.085,88.427c-0.442,0.253-0.853,0.553-1.23,0.891l-0.031,0.022l0.002,0.003
		c-1.445,1.311-2.358,3.198-2.358,5.303c0,3.958,3.208,7.167,7.167,7.167c1.548,0,2.978-0.496,4.149-1.331l0.002,0.003l0.071-0.058
		c0.182-0.133,0.357-0.273,0.525-0.423l14.743-11.881H103l-14.75,26.209c0,0-5.134,9.214-0.334,14.25
		c4.209,4.416,12.667,6.916,12.667,6.916l17.25,6.501l5.101,31.291l0.009-0.001c0.549,3.413,3.499,6.023,7.067,6.023
		c3.958,0,7.166-3.209,7.166-7.167c0-0.189-0.014-0.375-0.028-0.56l0.028-0.004L132.083,135.668z"/>
</g>
</svg>
