<svg enable-background="new 0 0 136 164" height="164" viewBox="0 0 136 164" width="136" xmlns="http://www.w3.org/2000/svg"><g fill="#fff"><path d="m93.133 38.767c8.121 0 14.945-5.542 16.9-13.049l5.467.814c.107.016.215.024.32.024 1.051 0 1.971-.77 2.131-1.84.176-1.178-.639-2.276-1.816-2.451l-5.541-.825c.002-.046.004-.091.004-.138 0-.182-.006-.362-.014-.542 0 0-.451-6.518-1.074-9.237-.621-2.719-2.535-3.296-2.535-3.296-9.77-2.212-19.772-2.438-22.375-2.438s-3.158 1.332-3.158 1.332l-3.15 4.996-.01-.003c-.076.122-.146.245-.219.368l-.027.043c-1.502 2.58-2.367 5.576-2.367 8.777-.001 9.646 7.819 17.465 17.464 17.465z"/><path d="m131.535 78.076v-.002l-26.742-2.168-9.246-21.112s-.461-2.774-6.008-8.476c-5.549-5.702-16.799-3.39-16.799-3.39s-23.886 4.469-31.745 6.318c-7.86 1.85-8.168 9.863-8.168 9.863l-.632 4.519-15.178-2.941c-.191-.037-.381-.055-.568-.055-1.407 0-2.671 1-2.948 2.429l-7.411 38.242c-.314 1.62.754 3.202 2.375 3.516l51.196 9.923c.115.022.23.024.346.033h.002c-.728.104-1.291-.035-1.291-.035l-9.4-1.849-3.082 17.105-23.56 20.363c-1.701 1.361-2.792 3.453-2.792 5.801 0 4.104 3.326 7.43 7.429 7.43 2.035 0 3.878-.818 5.22-2.145 0 0 27.725-22.05 29.575-23.591 1.85-1.54 2.773-3.853 2.773-3.853s4.541-13.948 5.779-16.874c.848-2.004 4.932-1.079 4.932-1.079l22.885 8.631 7.615 29.062c.082.63.242 1.234.473 1.804h.002c1.098 2.728 3.77 4.654 6.889 4.654 4.104 0 7.43-3.327 7.43-7.43 0-.599-.072-1.179-.207-1.736-.842-4.965-4.604-27.046-5.561-31.826-1.078-5.394-4.621-6.934-4.621-6.934s-21.268-11.558-22.654-12.329c-1.387-.77-1.078-2.774-1.078-2.774l3.93-14.331 2.773 5.856s1.619 3.274 4.084 3.391l33.357.82c4.104 0 7.43-3.326 7.43-7.431-.001-3.889-2.993-7.079-6.804-7.399zm-71.431-15.269-1.789 5.88 9.898 1.919-20.214-3.917.548-2.496zm-2.249 45.473-45.304-8.781 6.27-32.353 12.542 2.431-1.618 11.567-.64 4.406c-.005.026-.008.056-.012.082l-.018.127h.002c-.04.312-.063.629-.063.951 0 4.104 3.327 7.429 7.43 7.429s7.429-3.325 7.429-7.429c0-.318-.021-.63-.061-.937l2.901-13.223 17.413 3.374z"/><path d="m25.05 17.008h38.027c1.1 0 2-.896 2-1.99s-.9-1.99-2-1.99h-38.027c-1.1 0-2 .896-2 1.99s.9 1.99 2 1.99z"/><path d="m38.08 23.025c-1.1 0-2 .896-2 1.99s.9 1.99 2 1.99h22.959c1.1 0 2-.896 2-1.99 0-1.095-.9-1.99-2-1.99z"/></g><path d="m87.098 32.732c8.121 0 14.945-5.542 16.9-13.049l5.467.814c.107.016.215.024.32.024 1.051 0 1.971-.77 2.131-1.84.176-1.178-.639-2.276-1.816-2.451l-5.541-.825c.002-.046.004-.091.004-.138 0-.182-.006-.362-.014-.542 0 0-.451-6.518-1.074-9.237-.621-2.719-2.535-3.296-2.535-3.296-9.77-2.212-19.772-2.438-22.376-2.438s-3.158 1.332-3.158 1.332l-3.15 4.996-.01-.003c-.076.121-.146.245-.219.368l-.027.043c-1.502 2.58-2.367 5.576-2.367 8.777 0 9.646 7.82 17.465 17.465 17.465z" fill="#3a3a3a"/><path d="m125.5 72.041v-.002l-26.742-2.168-9.246-21.112s-.461-2.774-6.008-8.476c-5.549-5.702-16.799-3.39-16.799-3.39s-23.886 4.469-31.745 6.317c-7.86 1.85-8.168 9.863-8.168 9.863l-3.082 22.036-.64 4.406c-.005.026-.008.056-.012.082l-.018.127h.002c-.04.312-.063.629-.063.951 0 4.104 3.327 7.429 7.43 7.429s7.429-3.325 7.429-7.429c0-.318-.021-.63-.061-.937l4.734-21.581 11.557-1.386-1.789 5.88 9.898 1.919c1.62.313 2.688 1.896 2.375 3.517l-7.412 38.243c-.277 1.43-1.541 2.43-2.948 2.43-.072 0-.146-.016-.22-.021-.728.104-1.291-.035-1.291-.035l-9.4-1.849-3.082 17.105-23.56 20.363c-1.701 1.361-2.792 3.453-2.792 5.801 0 4.104 3.326 7.43 7.429 7.43 2.035 0 3.878-.818 5.22-2.145 0 0 27.725-22.05 29.575-23.591 1.85-1.54 2.773-3.853 2.773-3.853s4.541-13.948 5.779-16.874c.848-2.004 4.932-1.079 4.932-1.079l22.885 8.631 7.615 29.062c.082.63.242 1.234.473 1.804h.002c1.098 2.728 3.77 4.654 6.889 4.654 4.104 0 7.43-3.327 7.43-7.43 0-.599-.072-1.179-.207-1.736-.842-4.965-4.604-27.046-5.561-31.826-1.078-5.394-4.621-6.934-4.621-6.934s-21.267-11.555-22.653-12.327c-1.387-.77-1.078-2.774-1.078-2.774l3.93-14.331 2.773 5.856s1.619 3.274 4.084 3.391l33.357.82c4.104 0 7.43-3.326 7.43-7.431 0-3.89-2.992-7.081-6.803-7.4z" fill="#3a3a3a"/><path d="m53.971 108.739h.002c.073.006.147.021.22.021 1.407 0 2.671-1 2.948-2.43l7.412-38.243c.313-1.621-.755-3.203-2.375-3.517l-20.214-3.917-1.286 5.862 17.413 3.374-6.271 32.354-45.304-8.779 6.27-32.353 12.542 2.431.832-5.95-15.178-2.942c-.191-.037-.381-.055-.568-.055-1.407 0-2.671 1-2.948 2.429l-7.411 38.244c-.314 1.62.754 3.202 2.375 3.516l51.196 9.923c.114.022.229.023.345.032z" fill="#f0c42e"/><path d="m59.042 8.982c0 1.095-.9 1.99-2 1.99h-38.027c-1.1 0-2-.896-2-1.99s.9-1.99 2-1.99h38.027c1.1.001 2 .896 2 1.99z" fill="#f0c52e"/><path d="m57.004 18.98c0 1.094-.9 1.99-2 1.99h-22.96c-1.1 0-2-.896-2-1.99 0-1.095.9-1.99 2-1.99h22.959c1.101 0 2.001.896 2.001 1.99z" fill="#f0c52e"/></svg>