<?xml version="1.0" encoding="utf-8"?>
<!-- Generator: Adobe Illustrator 15.0.0, SVG Export Plug-In . SVG Version: 6.00 Build 0)  -->
<!DOCTYPE svg PUBLIC "-//W3C//DTD SVG 1.1//EN" "http://www.w3.org/Graphics/SVG/1.1/DTD/svg11.dtd">
<svg version="1.1" id="Layer_1" xmlns="http://www.w3.org/2000/svg" xmlns:xlink="http://www.w3.org/1999/xlink" x="0px" y="0px"
	 width="132px" height="69px" viewBox="0 0 132 69" enable-background="new 0 0 132 69" xml:space="preserve">
<g transform="translate(0.000000,512.000000) scale(0.100000,-0.100000)">
	<path fill="#363636" d="M120.522,5117.421c-55.449-4.873-102.139-15.928-114.77-26.724c-7.227-6.162-7.227-6.162-2.324-11.562
		c6.445-7.197,37.134-16.45,72.476-22.363c39.98-6.68,125.098-6.934,137.231-0.513c12.119,6.68,16.24,14.136,16.24,29.814
		c0,16.187-6.191,24.16-22.178,28.525C192.739,5118.457,149.414,5120,120.522,5117.421z"/>
	<path fill="#363636" d="M257.744,5115.117c-1.294-2.832-2.583-21.079-2.583-41.118c0-40.61,1.553-37.783-21.919-39.331
		l-10.308-0.771l-1.294-25.444l-1.289-25.439l-11.865-2.832c-25.791-6.68-39.99-25.952-37.915-52.944
		c1.279-19.272,10.308-33.408,25.786-40.869c11.089-5.132,14.697-5.381,112.461-5.381c55.449,0,101.372-0.786,101.885-1.807
		c0.508-1.284-11.094-94.072-25.796-206.387c-14.448-112.305-26.831-209.971-27.085-216.66
		c-0.513-16.172,8.262-26.211,23.477-26.211c12.373,0,20.117,6.416,23.213,19.014c1.294,5.137,14.956,103.33,30.181,218.213
		c15.22,114.629,28.628,208.687,29.404,208.687c1.03,0,10.83-14.131,21.924-31.357c29.399-46.26,23.989-43.169,76.353-43.169h43.584
		v-28.022v-28.276l-51.328-0.771c-47.202-0.771-52.1-1.27-58.813-6.152c-15.728-11.572-16.25-14.15-16.25-109.766
		c0-95.342,0.264-97.92,15.225-110.498l8.511-6.953h156.826h156.826l8.506,6.953c14.961,12.578,15.205,15.156,15.205,110.498
		c0,95.615-0.508,98.193-16.23,109.766c-6.709,4.883-11.611,5.381-58.818,6.152l-51.318,0.771v28.276v28.022h43.594
		c52.344,0,46.934-3.091,76.338,43.169c11.104,17.227,20.898,31.357,21.934,31.357c0.762,0,14.189-94.058,29.395-208.687
		c15.225-114.883,28.896-213.076,30.186-218.213c3.096-12.598,10.82-19.014,23.213-19.014c15.215,0,23.994,10.039,23.467,26.211
		c-0.254,6.689-12.637,104.355-27.09,216.66c-14.688,112.314-26.309,205.103-25.781,206.387c0.508,1.021,46.416,1.807,101.895,1.807
		c97.754,0,101.357,0.249,112.441,5.381c15.479,7.461,24.502,21.597,25.791,40.869c2.07,26.992-12.109,46.265-37.91,52.944
		l-11.875,2.832l-1.27,25.439l-1.289,25.444l-10.322,0.771c-23.467,1.548-21.934-1.279-21.934,39.331
		c0,20.039-1.279,38.286-2.568,41.118c-2.061,3.599-5.43,4.883-13.672,4.883c-6.191,0-12.383-1.284-14.199-3.086
		c-2.061-2.056-3.096-14.653-3.096-39.321c0-24.673-1.025-37.271-3.096-39.321c-1.797-1.797-9.014-3.081-16.494-3.081
		c-16.26,0-16.514-0.522-16.514-31.104v-22.871H660.127H324.805v22.871c0,30.581-0.249,31.104-16.499,31.104
		c-7.485,0-14.702,1.284-16.504,3.081c-2.075,2.051-3.101,14.648-3.101,39.321c0,24.668-1.03,37.266-3.096,39.321
		c-1.807,1.802-8.003,3.086-14.189,3.086C263.169,5120,259.814,5118.715,257.744,5115.117z M686.172,4713.916
		c28.887-8.984,53.916-33.926,61.66-61.68c4.385-15.43,3.096-42.158-2.842-57.832c-6.963-18.75-26.846-40.098-45.654-49.355
		c-12.9-6.416-17.539-7.188-39.209-7.188c-21.665,0-26.309,0.771-39.204,7.188c-18.843,9.258-38.691,30.605-45.659,49.355
		c-5.928,15.674-7.227,42.402-2.837,57.832c7.48,27.236,32.495,52.695,60.615,61.68
		C653.164,4720.341,666.045,4720.341,686.172,4713.916z"/>
	<path fill="#363636" d="M637.939,4675.625c-20.366-9.258-35.068-36.494-30.688-57.305c7.739-36.768,48.232-55.527,79.956-37.021
		c19.854,11.582,29.912,35.469,24.512,57.832c-5.684,23.906-27.344,41.377-51.592,41.377
		C653.672,4680.507,643.872,4678.193,637.939,4675.625z"/>
	<path fill="#363636" d="M360.918,5118.457c-39.204-6.68-45.132-11.309-45.132-34.438c0-18.247,4.639-24.16,22.681-29.556
		c15.498-4.624,71.724-5.142,105-1.284c68.608,8.223,113.218,25.444,96.987,37.52c-12.651,8.999-49.023,18.765-90.542,23.901
		C425.156,5117.68,369.951,5120,360.918,5118.457z"/>
	<path fill="#363636" d="M894.844,5117.421c-63.193-5.903-118.643-20.811-118.643-31.86c0-17.222,78.408-34.697,156.299-34.956
		c58.037,0,71.963,6.421,71.963,33.413c0,18.242-6.191,26.216-23.73,30.84C964.238,5118.974,923.984,5120,894.844,5117.421z"/>
	<path fill="#363636" d="M1127.764,5117.167c-17.803-2.31-30.186-7.705-34.307-14.907c-3.867-7.705-3.096-29.038,1.543-35.718
		c9.277-13.11,16.523-14.653,70.684-14.653c36.611,0,58.018,1.289,78.662,4.883c35.342,5.913,66.035,15.166,72.48,22.363
		c4.902,5.4,4.902,5.4-2.324,11.562c-13.408,11.309-59.58,21.851-119.16,26.724
		C1160.527,5120.253,1150.459,5120.253,1127.764,5117.167z"/>
</g>
</svg>
