<?xml version="1.0" encoding="utf-8"?>
<!-- Generator: Adobe Illustrator 15.0.0, SVG Export Plug-In . SVG Version: 6.00 Build 0)  -->
<!DOCTYPE svg PUBLIC "-//W3C//DTD SVG 1.1//EN" "http://www.w3.org/Graphics/SVG/1.1/DTD/svg11.dtd">
<svg version="1.1" id="Layer_1" xmlns="http://www.w3.org/2000/svg" xmlns:xlink="http://www.w3.org/1999/xlink" x="0px" y="0px"
	 width="97px" height="55px" viewBox="0 0 97 55" enable-background="new 0 0 97 55" xml:space="preserve">
<g id="Layer_1_1_">
</g>
<g>
	<path fill="#363636" d="M84.131,32.639V20.003c0-1.309,1.045-2.37,2.335-2.37l8.326,1.581V11.02c0-2.355-1.708-3.431-4.202-4.265
		l-23.187-6.58c1.616,1.391,1.889,2.04,1.889,4.396v45.209c0,2.356-0.45,4.066-1.967,5.21l23.265-7.065
		c2.401-0.833,4.202-4.216,4.202-6.572V33.44l-8.326,1.567C85.176,35.009,84.131,33.947,84.131,32.639z"/>
	<path fill="#363636" d="M95.129,20.979l-7.598-1.444c-1.008,0-1.824,0.829-1.824,1.851v9.868c0,1.023,0.816,1.852,1.824,1.852
		l7.598-1.431c1.154-0.419,1.824-0.829,1.824-1.852V22.83C96.953,21.808,96.187,21.323,95.129,20.979z"/>
	<path fill="#363636" d="M67.17,4.483c0-5.08-4.232-4.459-4.232-4.459S5.832,4.738,2.838,5.145S0.001,9.532,0.001,9.532
		S0,42.069,0,45.812s2.599,3.753,2.599,3.753l16.477,1.403L27.212,39.3c0,0,1.109-1.828,2.505-1.828
		c1.397,0,2.432,1.861,2.432,1.861l9.061,13.521c0,0,18.895,1.909,22.521,1.909c3.626-0.001,3.439-5.024,3.439-5.024
		S67.17,9.563,67.17,4.483z M12.982,37.192c-3.698,0-6.696-4.601-6.696-10.275s2.998-10.275,6.696-10.275
		c3.698,0,6.696,4.601,6.696,10.275S16.68,37.192,12.982,37.192z M49.14,38.618c-4.662,0-8.441-5.239-8.441-11.701
		c0-6.463,3.78-11.702,8.441-11.702c4.662,0,8.442,5.239,8.442,11.702C57.582,33.379,53.802,38.618,49.14,38.618z"/>
</g>
</svg>
