<?xml version="1.0" encoding="utf-8"?>
<!-- Generator: Adobe Illustrator 15.0.0, SVG Export Plug-In . SVG Version: 6.00 Build 0)  -->
<!DOCTYPE svg PUBLIC "-//W3C//DTD SVG 1.1//EN" "http://www.w3.org/Graphics/SVG/1.1/DTD/svg11.dtd">
<svg version="1.1" id="Layer_1" xmlns="http://www.w3.org/2000/svg" xmlns:xlink="http://www.w3.org/1999/xlink" x="0px" y="0px"
	 width="16px" height="16px" viewBox="0 0 16 16" enable-background="new 0 0 16 16" xml:space="preserve">
<path d="M15.7,14.3l-3.104-3.104C13.473,10.023,14,8.576,14,7c0-3.866-3.134-7-7-7S0,3.134,0,7s3.134,7,7,7
	c1.576,0,3.023-0.527,4.193-1.404L14.3,15.7c0.185,0.184,0.38,0.3,0.7,0.3c0.553,0,1-0.447,1-1C16,14.781,15.945,14.546,15.7,14.3z
	 M2,7c0-2.762,2.238-5,5-5s5,2.238,5,5s-2.238,5-5,5S2,9.762,2,7z"/>
</svg>
