<?xml version="1.0" encoding="utf-8"?>
<!-- Generator: Adobe Illustrator 15.0.0, SVG Export Plug-In . SVG Version: 6.00 Build 0)  -->
<!DOCTYPE svg PUBLIC "-//W3C//DTD SVG 1.1//EN" "http://www.w3.org/Graphics/SVG/1.1/DTD/svg11.dtd">
<svg version="1.1" id="Layer_1" xmlns="http://www.w3.org/2000/svg" xmlns:xlink="http://www.w3.org/1999/xlink" x="0px" y="0px"
	 width="14px" height="14px" viewBox="0 0 23 23" enable-background="new 0 0 23 23" xml:space="preserve">
<g>
	<path d="M11.5,2c5.238,0,9.5,4.262,9.5,9.5S16.738,21,11.5,21S2,16.738,2,11.5S6.262,2,11.5,2 M11.5,0C5.149,0,0,5.149,0,11.5
		C0,17.852,5.149,23,11.5,23C17.852,23,23,17.852,23,11.5C23,5.149,17.852,0,11.5,0L11.5,0z"/>
</g>
<g>
	<path d="M11.5,9.004c1.376,0,2.496,1.12,2.496,2.496c0,1.376-1.12,2.496-2.496,2.496c-1.376,0-2.496-1.12-2.496-2.496
		C9.004,10.124,10.124,9.004,11.5,9.004 M11.5,7.004c-2.483,0-4.496,2.013-4.496,4.496c0,2.483,2.013,4.496,4.496,4.496
		c2.483,0,4.496-2.013,4.496-4.496C15.996,9.017,13.983,7.004,11.5,7.004L11.5,7.004z"/>
</g>
</svg>
