<?xml version="1.0" encoding="utf-8"?>
<!-- Generator: Adobe Illustrator 15.0.0, SVG Export Plug-In . SVG Version: 6.00 Build 0)  -->
<!DOCTYPE svg PUBLIC "-//W3C//DTD SVG 1.1//EN" "http://www.w3.org/Graphics/SVG/1.1/DTD/svg11.dtd">
<svg version="1.1" id="Layer_1" xmlns="http://www.w3.org/2000/svg" xmlns:xlink="http://www.w3.org/1999/xlink" x="0px" y="0px"
	 width="171px" height="195px" viewBox="0 0 171 195" enable-background="new 0 0 171 195" xml:space="preserve">
<g>
	<path fill="#FFFFFF" d="M77.694,174.636c-0.104-0.13-10.495-12.996-12.609-15.76c-1.321-1.727-3.307-2.678-5.593-2.678
		c-2.56,0-4.836,1.17-5.512,1.553l-5.486,2.743c-1.773-0.479-5.587-1.95-9.28-6.268c-3.284-3.839-3.261-8.986-3.086-11.099
		l5.893-5.893c3.093-2.717,2.452-6.516,1.246-8.431l-0.219-0.311c0,0-12.862-16.221-14.666-18.498
		c-0.989-1.249-2.475-1.938-4.184-1.938c-2.849,0-5.879,1.975-6.756,2.592c-10.885,7.749-11.586,14.562-11.631,15.313l-0.024,0.414
		l0.074,0.409c6.412,35.726,26.026,51.137,35.453,58.543c1.148,0.901,2.14,1.681,2.854,2.306C50.731,193.38,57.93,194,60.721,194
		c2.375-0.001,4.48-0.405,6.089-1.171c4.366-2.078,9.425-8.01,10.872-9.778c2.501-3.059,1.283-6.599,0.168-8.208L77.694,174.636z
		 M63.801,186.509C63.302,186.746,62.231,187,60.72,187c-1.56,0-7.032-0.334-11.944-4.632c-0.854-0.747-1.913-1.579-3.139-2.543
		c-8.694-6.83-26.729-21.001-32.78-53.684c0.289-0.979,1.829-4.938,8.62-9.771c0.652-0.453,1.508-0.904,2.119-1.142
		c2.831,3.572,11.41,14.392,13.502,17.03l-7.528,7.527l-0.203,1.055c-0.081,0.422-1.911,10.409,4.527,17.937
		c6.286,7.349,13.25,8.667,14.583,8.856l1.082,0.154l7.644-3.823l0.218-0.118c0.281-0.167,1.335-0.648,2.071-0.648
		c0.036,0,0.065,0.001,0.088,0.003c2.149,2.8,11.105,13.897,12.5,15.624c0.001,0.004,0.002,0.007,0.004,0.01
		C69.522,181.93,65.911,185.504,63.801,186.509z"/>
	<path fill="#FFFFFF" d="M137.85,65.824c5.512-5.177,7.156-11.975,5.033-20.783c-0.207-0.856-0.848-1.541-1.689-1.802
		c-0.842-0.262-1.76-0.06-2.414,0.53l-8.221,7.403c-1.438-0.795-3.676-2.451-4.465-5.33l6.803-6.729
		c0.947-0.938,0.992-2.453,0.104-3.446l-0.186-0.207c-0.193-0.216-0.422-0.396-0.678-0.533c-0.16-0.086-3.988-2.116-8.824-2.116
		c-4.709,0-8.859,1.921-12.002,5.556c-6,6.938-4.557,15.042-3.543,18.471l-3.488,3.488L93.996,51.09l4.717-3.266L78.671,34.1
		L68.07,44.703l13.724,20.041l3.266-4.717l9.237,10.282l-3.295,3.294c-1.5-0.478-3.883-1.052-6.663-1.052
		c-5.429,0-10.236,2.174-13.962,6.359c-0.271,0.329-6.599,8.165-2.751,18.621c0.284,0.773,0.931,1.356,1.729,1.56
		c0.796,0.203,1.645,0.001,2.264-0.541l8.295-7.259c1.323,0.567,3.622,2.08,4.659,5.925l-7.384,7.516
		c-0.634,0.645-0.87,1.582-0.617,2.45s0.954,1.532,1.835,1.737c0.11,0.025,2.724,0.623,6.175,0.623
		c6.84,0,12.112-2.271,15.245-6.567c3.363-4.613,4.094-9.433,3.994-13.088l16.217,16.217l0.172,0.158
		c1.521,1.26,4.318,2.725,7.451,2.725c2.227,0,4.625-0.741,6.852-2.824l5.518-5.516l0.102-0.104
		c5.012-5.358,2.258-11.698,0.1-14.302l-16.945-16.959c1.027,0.106,2.148,0.181,3.322,0.181
		C131.498,69.462,135.279,68.238,137.85,65.824z M84.551,51.978l-2.734,3.949l-7.276-10.625l4.731-4.732l10.625,7.276l-3.95,2.734
		l14.792,13.286l-4.094,4.093l1.191-1.192L84.551,51.978z M98.113,85.502c0.109,0.313,2.615,7.746-2.328,14.527
		c-2.77,3.798-7.748,4.526-11.4,4.512l4.703-4.787c0.566-0.576,0.82-1.391,0.68-2.187c-1.791-10.147-9.745-11.484-10.083-11.536
		c-0.729-0.11-1.471,0.104-2.027,0.589l-6.204,5.428c-0.522-5.56,2.413-9.489,2.759-9.932c2.721-3.03,6.127-4.566,10.125-4.566
		c3.515,0,6.231,1.211,6.249,1.22c0.953,0.439,2.076,0.241,2.818-0.501l19-19c0.725-0.724,0.934-1.816,0.527-2.756
		c-0.035-0.083-3.494-8.34,2.158-14.876c2.195-2.539,4.961-3.826,8.221-3.826c1.23,0,2.383,0.183,3.365,0.421l-5.047,4.993
		c-0.551,0.544-0.818,1.312-0.725,2.08c1.012,8.3,8.969,11.077,9.307,11.191c0.855,0.288,1.801,0.094,2.473-0.511l6.049-5.447
		c0.373,4.864-1.02,8.554-4.309,11.642c-2.008,1.887-5.359,2.283-7.818,2.283c-3.689,0-6.951-0.865-6.982-0.873
		c-0.865-0.236-1.795,0.014-2.43,0.653l-18.5,18.667C98.023,83.587,97.801,84.6,98.113,85.502z M103.615,87.344
		c0,0.003,0,0.005,0,0.008C103.615,87.349,103.615,87.347,103.615,87.344z M103.434,86.223c0.01,0.052,0.02,0.104,0.029,0.158
		C103.453,86.329,103.443,86.274,103.434,86.223z M136.525,97.079l-5.479,5.476c-3.248,2.98-6.9,0.432-7.576-0.087l-18.643-18.645
		l14.941-15.075l-2.035,2.053l18.707,18.706C136.9,90.099,139.537,93.794,136.525,97.079z M121.316,69.025
		c0.008,0.001,0.016,0.002,0.023,0.004C121.332,69.027,121.324,69.026,121.316,69.025z M120.473,68.882
		c0.02,0.004,0.045,0.008,0.066,0.012C120.516,68.89,120.494,68.886,120.473,68.882z"/>
	<path fill="#FFFFFF" d="M104.162,6.002c-36.408,0-65.922,29.514-65.922,65.922c0,33.517,25.02,61.172,57.398,65.354v26.224
		c0,0,57.439-21.243,71.969-73.622c0.078-0.283,0.139-0.538,0.211-0.812c0.113-0.424,0.225-0.85,0.33-1.277
		c0.064-0.263,0.119-0.514,0.178-0.769c1.137-4.851,1.758-9.901,1.758-15.098C170.084,35.516,140.57,6.002,104.162,6.002z
		 M161.51,85.424l-0.006,0.027l-0.006,0.027l-0.029,0.13c-0.039,0.17-0.076,0.339-0.119,0.515c-0.094,0.376-0.191,0.751-0.301,1.161
		l-0.104,0.4c-0.025,0.108-0.053,0.216-0.082,0.324c-5.564,20.056-18.52,37.7-38.506,52.442
		c-7.373,5.438-14.408,9.464-19.719,12.175v-15.348v-6.154l-6.104-0.788c-29.243-3.777-51.295-28.889-51.295-58.412
		c0-32.49,26.432-58.922,58.922-58.922c32.488,0,58.922,26.432,58.922,58.922C163.084,76.432,162.555,80.974,161.51,85.424z"/>
</g>
<g>
	<path fill="#3A3A3A" d="M54.583,187.998c-2.791,0-9.989-0.62-16.554-6.364c-0.714-0.625-1.706-1.404-2.854-2.306
		c-9.426-7.406-29.041-22.817-35.453-58.543l-0.074-0.409l0.024-0.414c0.044-0.752,0.746-7.564,11.631-15.313
		c0.877-0.617,3.907-2.592,6.756-2.592c1.708,0,3.194,0.688,4.184,1.938c1.804,2.277,14.666,18.498,14.666,18.498l0.219,0.311
		c1.206,1.915,1.847,5.714-1.246,8.431l-5.893,5.893c-0.175,2.112-0.198,7.26,3.086,11.099c3.692,4.317,7.507,5.789,9.28,6.268
		l5.486-2.743c0.676-0.383,2.952-1.553,5.512-1.553c2.286,0,4.272,0.951,5.593,2.678c2.114,2.764,12.504,15.63,12.609,15.76
		l0.155,0.207c1.115,1.609,2.333,5.149-0.168,8.208c-1.447,1.769-6.505,7.7-10.872,9.778
		C59.063,187.593,56.958,187.997,54.583,187.998z M6.72,120.14c6.051,32.683,24.086,46.854,32.78,53.684
		c1.226,0.964,2.285,1.796,3.139,2.543c4.912,4.298,10.384,4.632,11.944,4.632c1.511,0,2.582-0.254,3.081-0.491
		c2.11-1.005,5.722-4.579,8.284-7.674c-0.001-0.003-0.003-0.006-0.004-0.01c-1.394-1.727-10.351-12.824-12.5-15.624
		c-0.023-0.002-0.053-0.003-0.088-0.003c-0.736,0-1.79,0.481-2.071,0.648l-0.218,0.118l-7.644,3.823l-1.082-0.154
		c-1.333-0.189-8.297-1.508-14.583-8.856c-6.438-7.527-4.608-17.515-4.527-17.937l0.203-1.055l7.528-7.527
		c-2.092-2.639-10.671-13.458-13.502-17.03c-0.611,0.237-1.467,0.688-2.119,1.142C8.548,115.202,7.008,119.161,6.72,120.14z"/>
</g>
<g>
	<path fill="#F0C42E" d="M78.443,103.54c-3.452,0-6.065-0.598-6.175-0.623c-0.881-0.205-1.583-0.869-1.835-1.737
		s-0.017-1.806,0.617-2.45l7.384-7.516c-1.037-3.845-3.336-5.357-4.659-5.925l-8.295,7.259c-0.62,0.542-1.468,0.744-2.264,0.541
		c-0.798-0.203-1.444-0.787-1.729-1.559c-3.848-10.457,2.48-18.293,2.751-18.622c3.726-4.185,8.533-6.359,13.962-6.359
		c2.78,0,5.162,0.574,6.663,1.052l16.766-16.765c-1.013-3.43-2.457-11.534,3.543-18.471c3.143-3.634,7.293-5.556,12.002-5.556
		c4.837,0,8.664,2.029,8.825,2.116c0.255,0.137,0.484,0.317,0.677,0.533l0.186,0.207c0.89,0.993,0.845,2.508-0.104,3.446
		l-6.803,6.729c0.789,2.879,3.028,4.535,4.465,5.33l8.222-7.403c0.654-0.59,1.572-0.792,2.413-0.53
		c0.842,0.261,1.483,0.945,1.69,1.802c2.123,8.809,0.478,15.606-5.033,20.783c-2.57,2.414-6.353,3.638-11.242,3.638
		c-2.789,0-5.324-0.407-6.839-0.714L97.127,79.399c0.729,3.181,1.631,10.62-3.439,17.574
		C90.555,101.269,85.283,103.54,78.443,103.54z M78.247,98.539c3.651,0.015,8.631-0.714,11.4-4.512
		c4.944-6.781,2.438-14.214,2.329-14.527c-0.313-0.902-0.091-1.915,0.582-2.593l18.5-18.667c0.634-0.639,1.564-0.889,2.43-0.653
		c0.03,0.008,3.293,0.873,6.982,0.873c2.458,0,5.811-0.396,7.818-2.283c3.288-3.088,4.681-6.778,4.309-11.642l-6.049,5.447
		c-0.672,0.604-1.617,0.799-2.473,0.511c-0.338-0.114-8.295-2.891-9.307-11.191c-0.094-0.768,0.173-1.536,0.724-2.08l5.047-4.993
		c-0.981-0.238-2.135-0.421-3.365-0.421c-3.259,0-6.024,1.288-8.221,3.826c-5.651,6.536-2.192,14.793-2.157,14.876
		c0.405,0.94,0.196,2.033-0.528,2.756l-19,19c-0.741,0.742-1.865,0.94-2.817,0.501c-0.018-0.008-2.735-1.22-6.25-1.22
		c-3.998,0-7.404,1.536-10.125,4.566c-0.347,0.442-3.282,4.372-2.759,9.932l6.204-5.428c0.556-0.486,1.298-0.7,2.027-0.589
		c0.337,0.052,8.291,1.389,10.082,11.536c0.141,0.796-0.112,1.61-0.679,2.187L78.247,98.539z"/>
</g>
<g>
	<polygon fill="#3A3A3A" points="78.921,54.025 88.158,64.307 91.698,60.766 78.413,45.976 75.678,49.925 68.402,39.301 
		73.134,34.569 83.759,41.845 79.809,44.579 94.6,57.865 98.141,54.324 87.858,45.088 92.575,41.822 72.533,28.098 61.932,38.701 
		75.656,58.742 	"/>
	<path fill="#3A3A3A" d="M117.147,63.28c-1.413-0.146-2.64-0.356-3.517-0.534l-2.034,2.053l18.706,18.706
		c0.46,0.592,3.097,4.287,0.084,7.572l-5.478,5.476c-3.248,2.98-6.901,0.432-7.576-0.087L98.69,77.821l-1.563,1.578
		c0.245,1.07,0.505,2.63,0.555,4.485l16.217,16.218l0.173,0.158c1.521,1.26,4.318,2.725,7.45,2.725c2.228,0,4.625-0.741,6.853-2.824
		l5.518-5.516l0.102-0.103c5.012-5.358,2.257-11.699,0.099-14.303L117.147,63.28z"/>
</g>
<path fill="#3A3A3A" d="M98.023,7c32.489,0,58.922,26.432,58.922,58.922c0,4.508-0.529,9.05-1.573,13.5l-0.006,0.027l-0.007,0.027
	l-0.029,0.13c-0.038,0.17-0.076,0.339-0.118,0.515c-0.094,0.376-0.191,0.751-0.302,1.161l-0.103,0.4
	c-0.026,0.108-0.054,0.216-0.083,0.324c-5.564,20.056-18.52,37.7-38.506,52.442c-7.373,5.438-14.408,9.464-19.719,12.175v-15.348
	v-6.154l-6.104-0.788c-29.243-3.777-51.294-28.889-51.294-58.412C39.102,33.432,65.534,7,98.023,7 M98.023,0
	C61.616,0,32.102,29.514,32.102,65.922c0,33.517,25.02,61.172,57.398,65.354V157.5c0,0,57.439-21.243,71.97-73.622
	c0.078-0.283,0.138-0.538,0.21-0.812c0.114-0.424,0.225-0.85,0.331-1.277c0.063-0.263,0.119-0.514,0.177-0.769
	c1.138-4.851,1.758-9.901,1.758-15.098C163.945,29.514,134.432,0,98.023,0L98.023,0z"/>
</svg>
